<!-- This Source Code Form is subject to the terms of the Mozilla Public
   - License, v. 2.0. If a copy of the MPL was not distributed with this
   - file, You can obtain one at http://mozilla.org/MPL/2.0/. -->
<svg xmlns="http://www.w3.org/2000/svg" xmlns:xlink="http://www.w3.org/1999/xlink" viewBox="0 0 1200 1200" width="1200" height="1200">
    <defs>
        <linearGradient id="a">
            <stop offset="0"/>
        </linearGradient>
        <linearGradient xlink:href="#a" id="b" x1="28.457" y1="498.81" x2="964.4" y2="498.81" gradientUnits="userSpaceOnUse" gradientTransform="translate(103.571 101.19)"/>
    </defs>
    <path fill="#ff0" fill-opacity=".345" stroke="url(#b)" stroke-width="10" stroke-linejoin="round" d="M134.528 34.528h930.944v1130.944H134.528z"/>
    <path d="M483.038 112.203c-12.07 6.9-11.31 25.87 1.34 31.04 3.45 1.53 9.77 2.68 13.99 2.68 19.35 0 48.67 14.75 62.27 31.62 8.81 10.73 17.82 29.51 20.31 42.92 1.15 6.52 1.92 74.54 1.92 186.25v176.09h-48.67c-48.67 0-48.86 0-54.23 4.6-7.47 6.52-7.47 18.78 0 25.29 5.37 4.6 5.56 4.6 54.23 4.6h48.86l-.58 182.41-.57 182.6-4.41 10.92c-13.99 34.68-43.11 57.67-76.07 60.36-15.33 1.15-21.65 3.83-24.91 10.35-3.64 6.71-3.64 10.16 0 16.86 5.36 10.54 19.16 11.88 47.71 4.79 24.14-6.13 50.58-23.76 65.53-43.88 5.17-6.71 9.77-12.26 10.35-12.26.57 0 4.02 4.41 7.66 9.58 13.61 19.74 43.88 40.43 68.02 46.37 28.74 7.28 42.54 5.94 47.9-4.6 7.47-14.18-2.3-26.63-20.69-26.63-20.31 0-49.63-14.56-63.04-31.23-9-11.31-11.69-15.9-17.05-29.13l-4.6-11.5-.57-182.41-.58-182.6h48.86c48.67 0 48.86 0 54.23-4.6 7.47-6.51 7.47-18.78 0-25.29-5.37-4.6-5.56-4.6-54.23-4.6h-48.86l.58-182.6.57-182.41 4.6-11.5c8.43-21.27 20.31-35.83 38.13-47.14 10.73-6.9 30.47-13.22 40.81-13.22 12.26 0 20.12-4.22 22.8-12.46 5.17-15.52-5.75-25.29-25.67-23.19-36.6 4.03-69.37 21.84-88.72 47.9-4.98 6.9-9.58 12.46-10.15 12.46-.57 0-4.98-5.37-9.96-12.07-14.56-19.74-43.69-38.9-68.6-44.84-16.09-3.83-33.15-4.59-38.51-1.53z"/>
</svg>
